<svg width="1728" height="1205" viewBox="0 0 1728 1205" fill="none" xmlns="http://www.w3.org/2000/svg">
<g clip-path="url(#clip0_1650_3043)">
<rect width="1728" height="1205" fill="#101828"/>
<rect width="1728" height="1205" fill="black"/>
<rect width="1728" height="1205" fill="url(#paint0_radial_1650_3043)" fill-opacity="0.12"/>
<rect width="1728" height="1205" fill="url(#paint1_radial_1650_3043)" fill-opacity="0.08"/>
<rect width="1728" height="1205" fill="url(#paint2_radial_1650_3043)"/>
<path d="M571.845 817.462C572.304 816.441 571.318 815.454 570.297 815.914C570.076 816.016 569.906 816.186 569.803 816.407C569.344 817.428 570.331 818.415 571.352 817.955C571.573 817.853 571.743 817.683 571.845 817.462Z" fill="white" fill-opacity="0.2"/>
<path d="M395.572 720.037C396.03 719.016 395.046 718.03 394.028 718.489C393.807 718.591 393.638 718.761 393.536 718.982C393.061 720.003 394.062 720.99 395.08 720.531C395.3 720.429 395.47 720.258 395.572 720.037Z" fill="white" fill-opacity="0.2"/>
<path d="M156.152 251.944C156.627 250.923 155.626 249.936 154.608 250.396C154.387 250.498 154.217 250.668 154.116 250.889C153.658 251.91 154.642 252.897 155.66 252.437C155.88 252.335 156.05 252.165 156.152 251.944Z" fill="white" fill-opacity="0.2"/>
<path d="M303.808 225.74C304.283 224.722 303.282 223.721 302.264 224.196C302.043 224.298 301.874 224.467 301.772 224.688C301.314 225.706 302.298 226.69 303.316 226.232C303.537 226.13 303.706 225.961 303.808 225.74Z" fill="white" fill-opacity="0.2"/>
<path d="M1263.99 858.711C1264.45 857.69 1263.46 856.703 1262.44 857.163C1262.22 857.265 1262.05 857.435 1261.94 857.656C1261.48 858.677 1262.47 859.664 1263.49 859.204C1263.71 859.102 1263.88 858.932 1263.99 858.711Z" fill="white" fill-opacity="0.4"/>
<path d="M1466.25 916.961C1466.72 915.94 1465.72 914.953 1464.7 915.412C1464.48 915.514 1464.31 915.685 1464.21 915.906C1463.75 916.927 1464.74 917.913 1465.75 917.454C1465.97 917.352 1466.14 917.182 1466.25 916.961Z" fill="white" fill-opacity="0.2"/>
<path d="M322.83 460.878C323.288 459.857 322.304 458.87 321.286 459.329C321.065 459.431 320.895 459.602 320.794 459.823C320.319 460.844 321.32 461.83 322.338 461.371C322.558 461.269 322.728 461.099 322.83 460.878Z" fill="white" fill-opacity="0.2"/>
<path d="M897.978 799.604C898.437 798.583 897.45 797.597 896.43 798.056C896.208 798.158 896.038 798.328 895.936 798.549C895.477 799.57 896.464 800.557 897.484 800.098C897.706 799.995 897.876 799.825 897.978 799.604Z" fill="white" fill-opacity="0.2"/>
<path d="M589.66 711.037C590.135 710.016 589.134 709.03 588.116 709.489C587.895 709.591 587.725 709.761 587.623 709.982C587.165 711.003 588.149 711.99 589.168 711.531C589.388 711.429 589.558 711.258 589.66 711.037Z" fill="white" fill-opacity="0.2"/>
<path d="M11.0407 846.838C11.4988 845.817 10.5147 844.83 9.49662 845.29C9.27604 845.392 9.10635 845.562 9.00454 845.783C8.52945 846.804 9.53055 847.791 10.5486 847.331C10.7692 847.229 10.9389 847.059 11.0407 846.838Z" fill="white" fill-opacity="0.2"/>
<path d="M1379.93 19.8507C1380.4 18.8299 1379.4 17.8431 1378.38 18.3025C1378.16 18.4046 1377.99 18.5747 1377.89 18.7959C1377.43 19.8167 1378.42 20.8034 1379.43 20.3441C1379.65 20.242 1379.82 20.0719 1379.93 19.8507Z" fill="white" fill-opacity="0.4"/>
<path d="M327.377 922.364C327.835 921.344 326.851 920.357 325.833 920.816C325.612 920.918 325.442 921.088 325.34 921.31C324.865 922.33 325.866 923.317 326.885 922.858C327.105 922.756 327.275 922.586 327.377 922.364Z" fill="white" fill-opacity="0.4"/>
<path d="M27.2846 124.424C27.7597 123.403 26.7586 122.416 25.7405 122.876C25.5199 122.978 25.3503 123.148 25.2485 123.369C24.7903 124.39 25.7745 125.377 26.7926 124.917C27.0132 124.815 27.1828 124.645 27.2846 124.424Z" fill="white" fill-opacity="0.2"/>
<path d="M306.916 40.3107C307.374 39.2899 306.39 38.3031 305.372 38.7625C305.151 38.8645 304.981 39.0347 304.88 39.2558C304.404 40.2766 305.406 41.2634 306.424 40.804C306.644 40.702 306.814 40.5318 306.916 40.3107Z" fill="white" fill-opacity="0.4"/>
<path d="M303.025 592.118C303.484 591.097 302.497 590.111 301.477 590.57C301.255 590.672 301.085 590.842 300.983 591.063C300.524 592.084 301.511 593.071 302.531 592.612C302.753 592.51 302.923 592.339 303.025 592.118Z" fill="white" fill-opacity="0.2"/>
<path d="M226.626 500.949C227.086 499.929 226.099 498.942 225.078 499.401C224.857 499.503 224.687 499.673 224.585 499.895C224.125 500.915 225.112 501.902 226.133 501.443C226.354 501.341 226.524 501.171 226.626 500.949Z" fill="white" fill-opacity="0.4"/>
<path d="M19.0954 675.801C19.5535 674.78 18.5694 673.793 17.5513 674.253C17.3307 674.355 17.161 674.525 17.0592 674.746C16.5841 675.767 17.5852 676.754 18.6033 676.294C18.8239 676.192 18.9936 676.022 19.0954 675.801Z" fill="white" fill-opacity="0.2"/>
<path d="M736.572 774.598C737.03 773.577 736.046 772.59 735.028 773.05C734.807 773.152 734.638 773.322 734.536 773.543C734.061 774.564 735.062 775.551 736.08 775.091C736.3 774.989 736.47 774.819 736.572 774.598Z" fill="white" fill-opacity="0.2"/>
<path d="M1052.56 949.64C1053.02 948.622 1052.04 947.638 1051.02 948.096C1050.8 948.197 1050.63 948.367 1050.53 948.588C1050.05 949.606 1051.05 950.607 1052.07 950.132C1052.29 950.03 1052.46 949.86 1052.56 949.64Z" fill="white" fill-opacity="0.2"/>
<path d="M897.978 879.171C898.437 878.15 897.45 877.163 896.43 877.623C896.208 877.725 896.038 877.895 895.936 878.116C895.477 879.137 896.464 880.124 897.485 879.664C897.706 879.562 897.876 879.392 897.978 879.171Z" fill="white" fill-opacity="0.4"/>
<path d="M1585.56 563.093C1586.02 562.072 1585.04 561.085 1584.02 561.545C1583.8 561.647 1583.63 561.817 1583.53 562.038C1583.05 563.059 1584.05 564.046 1585.07 563.586C1585.29 563.484 1585.46 563.314 1585.56 563.093Z" fill="white" fill-opacity="0.4"/>
<path d="M287.478 201.238C287.936 200.217 286.952 199.23 285.934 199.69C285.714 199.792 285.544 199.962 285.442 200.183C284.967 201.204 285.968 202.191 286.986 201.731C287.207 201.629 287.376 201.459 287.478 201.238Z" fill="white" fill-opacity="0.2"/>
<path d="M1625.67 471.081C1626.12 470.06 1625.14 469.073 1624.12 469.532C1623.9 469.635 1623.73 469.805 1623.63 470.026C1623.15 471.047 1624.16 472.033 1625.17 471.574C1625.39 471.472 1625.56 471.302 1625.67 471.081Z" fill="white" fill-opacity="0.2"/>
<path d="M918.433 44.8575C918.908 43.8368 917.907 42.85 916.889 43.3093C916.668 43.4114 916.499 43.5815 916.397 43.8027C915.939 44.8235 916.923 45.8103 917.941 45.3509C918.162 45.2488 918.331 45.0787 918.433 44.8575Z" fill="white" fill-opacity="0.2"/>
<path d="M572.095 639.228C572.554 638.207 571.568 637.22 570.547 637.679C570.326 637.782 570.156 637.952 570.053 638.173C569.594 639.194 570.581 640.18 571.602 639.721C571.823 639.619 571.993 639.449 572.095 639.228Z" fill="white" fill-opacity="0.2"/>
<path d="M709.47 72.8878C709.929 71.8697 708.944 70.8856 707.926 71.3437C707.706 71.4455 707.536 71.6152 707.434 71.8358C706.959 72.8538 707.96 73.8549 708.978 73.3798C709.199 73.278 709.369 73.1084 709.47 72.8878Z" fill="white" fill-opacity="0.2"/>
<path d="M1686.82 710.944C1687.3 709.924 1686.3 708.937 1685.28 709.396C1685.06 709.498 1684.89 709.668 1684.79 709.89C1684.33 710.91 1685.31 711.897 1686.33 711.438C1686.55 711.336 1686.72 711.166 1686.82 710.944Z" fill="white" fill-opacity="0.4"/>
<path d="M449.314 74.4108C449.773 73.39 448.786 72.4032 447.766 72.8626C447.544 72.9646 447.374 73.1348 447.272 73.356C446.813 74.3768 447.8 75.3635 448.82 74.9041C449.042 74.8021 449.212 74.6319 449.314 74.4108Z" fill="white" fill-opacity="0.2"/>
<path d="M505.581 971.392C506.057 970.371 505.055 969.384 504.037 969.844C503.817 969.946 503.647 970.116 503.545 970.337C503.087 971.358 504.071 972.344 505.089 971.885C505.31 971.783 505.48 971.613 505.581 971.392Z" fill="white" fill-opacity="0.2"/>
<path d="M1242.81 154.999C1243.26 153.978 1242.28 152.991 1241.26 153.45C1241.04 153.553 1240.87 153.723 1240.77 153.944C1240.3 154.965 1241.3 155.951 1242.31 155.492C1242.53 155.39 1242.7 155.22 1242.81 154.999Z" fill="white" fill-opacity="0.2"/>
<path d="M1334.62 87.2072C1335.1 86.1864 1334.09 85.1996 1333.08 85.6589C1332.86 85.761 1332.69 85.9312 1332.58 86.1523C1332.13 87.1731 1333.11 88.1599 1334.13 87.7005C1334.35 87.5984 1334.52 87.4283 1334.62 87.2072Z" fill="white" fill-opacity="0.2"/>
<path d="M406.103 196.931C406.562 195.91 405.575 194.923 404.555 195.383C404.334 195.485 404.163 195.655 404.061 195.876C403.602 196.897 404.589 197.884 405.61 197.424C405.831 197.322 406.001 197.152 406.103 196.931Z" fill="white" fill-opacity="0.2"/>
<path d="M1459.04 714.288C1459.52 713.267 1458.52 712.28 1457.5 712.74C1457.28 712.842 1457.11 713.012 1457.01 713.233C1456.55 714.254 1457.53 715.24 1458.55 714.781C1458.77 714.679 1458.94 714.509 1459.04 714.288Z" fill="white" fill-opacity="0.2"/>
<path d="M245.764 381.311C245.305 380.29 246.292 379.303 247.313 379.762C247.534 379.865 247.704 380.035 247.806 380.256C248.265 381.277 247.279 382.263 246.258 381.804C246.037 381.702 245.866 381.532 245.764 381.311Z" fill="white" fill-opacity="0.2"/>
<path d="M970.96 849.617C970.5 848.597 971.487 847.61 972.508 848.069C972.729 848.171 972.899 848.341 973.001 848.562C973.461 849.583 972.474 850.57 971.453 850.111C971.232 850.009 971.062 849.838 970.96 849.617Z" fill="white" fill-opacity="0.2"/>
<path d="M111.639 815.464C111.181 814.443 112.165 813.456 113.183 813.916C113.404 814.018 113.573 814.188 113.675 814.409C114.15 815.43 113.149 816.417 112.131 815.957C111.911 815.855 111.741 815.685 111.639 815.464Z" fill="white" fill-opacity="0.2"/>
<path d="M757.264 854.164C756.805 853.143 757.792 852.157 758.813 852.616C759.034 852.718 759.204 852.888 759.306 853.109C759.765 854.13 758.779 855.117 757.758 854.658C757.537 854.555 757.366 854.385 757.264 854.164Z" fill="white" fill-opacity="0.2"/>
<path d="M1050.52 885.986C1050.06 884.968 1051.05 883.984 1052.07 884.442C1052.29 884.544 1052.46 884.714 1052.56 884.934C1053.03 885.952 1052.03 886.954 1051.01 886.478C1050.79 886.377 1050.62 886.207 1050.52 885.986Z" fill="white" fill-opacity="0.2"/>
<path d="M15.9438 620.153C15.4857 619.132 16.4698 618.145 17.4879 618.605C17.7085 618.707 17.8781 618.877 17.9799 619.098C18.455 620.119 17.454 621.106 16.4359 620.646C16.2153 620.544 16.0456 620.374 15.9438 620.153Z" fill="white" fill-opacity="0.2"/>
<path d="M1514.94 72.5192C1514.47 71.4984 1515.47 70.5116 1516.49 70.971C1516.71 71.073 1516.88 71.2432 1516.98 71.4643C1517.44 72.4851 1516.45 73.4719 1515.43 73.0125C1515.21 72.9105 1515.04 72.7403 1514.94 72.5192Z" fill="white" fill-opacity="0.4"/>
<path d="M1157.37 1.66419C1156.92 0.643395 1157.9 -0.343378 1158.92 0.115979C1159.14 0.218059 1159.31 0.388179 1159.41 0.609351C1159.88 1.63015 1158.88 2.61692 1157.87 2.15756C1157.64 2.05548 1157.48 1.88536 1157.37 1.66419Z" fill="white" fill-opacity="0.2"/>
<path d="M1103.64 25.4806C1103.18 24.4598 1104.17 23.473 1105.19 23.9324C1105.41 24.0345 1105.58 24.2046 1105.68 24.4258C1106.14 25.4466 1105.15 26.4333 1104.13 25.974C1103.91 25.8719 1103.74 25.7017 1103.64 25.4806Z" fill="white" fill-opacity="0.2"/>
<path d="M50.6235 499.866C50.1654 498.846 51.1495 497.859 52.1675 498.318C52.3881 498.42 52.5578 498.59 52.6596 498.812C53.1347 499.832 52.1336 500.819 51.1155 500.36C50.8949 500.258 50.7253 500.087 50.6235 499.866Z" fill="white" fill-opacity="0.2"/>
<path d="M1268.37 43.5606C1267.91 42.5399 1268.9 41.5531 1269.92 42.0125C1270.14 42.1145 1270.31 42.2847 1270.42 42.5058C1270.87 43.5266 1269.89 44.5134 1268.87 44.054C1268.65 43.952 1268.48 43.7818 1268.37 43.5606Z" fill="white" fill-opacity="0.2"/>
<path d="M575.397 26.671C574.938 25.6502 575.925 24.6635 576.945 25.1228C577.167 25.2249 577.337 25.395 577.439 25.6162C577.898 26.637 576.911 27.6238 575.891 27.1644C575.669 27.0623 575.499 26.8922 575.397 26.671Z" fill="white" fill-opacity="0.2"/>
<path d="M455.702 158.52C455.243 157.499 456.228 156.512 457.246 156.971C457.466 157.074 457.636 157.244 457.738 157.465C458.213 158.486 457.212 159.472 456.194 159.013C455.973 158.911 455.803 158.741 455.702 158.52Z" fill="white" fill-opacity="0.2"/>
<path d="M670.147 159.163C669.688 158.142 670.675 157.156 671.695 157.615C671.917 157.717 672.087 157.887 672.189 158.108C672.648 159.129 671.661 160.116 670.641 159.657C670.419 159.555 670.249 159.384 670.147 159.163Z" fill="white" fill-opacity="0.2"/>
<path d="M296.975 824.149C296.516 823.128 297.503 822.141 298.524 822.601C298.745 822.703 298.915 822.873 299.017 823.094C299.476 824.115 298.49 825.102 297.469 824.642C297.248 824.54 297.077 824.37 296.975 824.149Z" fill="white" fill-opacity="0.2"/>
<path d="M684.522 879.171C684.063 878.15 685.05 877.163 686.07 877.623C686.292 877.725 686.462 877.895 686.564 878.116C687.023 879.137 686.036 880.124 685.016 879.664C684.794 879.562 684.624 879.392 684.522 879.171Z" fill="white" fill-opacity="0.2"/>
<path d="M839.108 945.098C838.649 944.077 839.636 943.09 840.656 943.55C840.878 943.652 841.048 943.822 841.15 944.043C841.609 945.064 840.622 946.051 839.602 945.591C839.38 945.489 839.21 945.319 839.108 945.098Z" fill="white" fill-opacity="0.4"/>
<path d="M1115.5 789.969C1115.04 788.948 1116.03 787.961 1117.05 788.421C1117.27 788.523 1117.44 788.693 1117.54 788.914C1118 789.935 1117.01 790.922 1115.99 790.462C1115.77 790.36 1115.6 790.19 1115.5 789.969Z" fill="white" fill-opacity="0.4"/>
<path d="M566.303 890.537C565.844 889.516 566.831 888.53 567.852 888.989C568.073 889.091 568.243 889.261 568.345 889.482C568.804 890.503 567.818 891.49 566.797 891.031C566.576 890.929 566.406 890.758 566.303 890.537Z" fill="white" fill-opacity="0.4"/>
<path d="M659.514 970.104C659.056 969.083 660.04 968.097 661.058 968.556C661.279 968.658 661.448 968.828 661.55 969.049C662.025 970.07 661.024 971.057 660.006 970.598C659.786 970.495 659.616 970.325 659.514 970.104Z" fill="white" fill-opacity="0.2"/>
<path d="M36.6157 192.624C36.1575 191.603 37.1417 190.617 38.1598 191.076C38.3803 191.178 38.55 191.348 38.6518 191.569C39.1269 192.59 38.1258 193.577 37.1077 193.118C36.8871 193.015 36.7175 192.845 36.6157 192.624Z" fill="white" fill-opacity="0.2"/>
<path d="M1374.11 804.115C1373.65 803.095 1374.63 802.108 1375.65 802.567C1375.87 802.669 1376.04 802.839 1376.14 803.061C1376.62 804.081 1375.62 805.068 1374.6 804.609C1374.38 804.507 1374.21 804.337 1374.11 804.115Z" fill="white" fill-opacity="0.2"/>
<path d="M1295.8 775.139C1295.33 774.118 1296.33 773.132 1297.35 773.591C1297.57 773.693 1297.74 773.863 1297.84 774.084C1298.3 775.105 1297.31 776.092 1296.29 775.633C1296.07 775.531 1295.9 775.36 1295.8 775.139Z" fill="white" fill-opacity="0.2"/>
<path d="M1693.89 365.399C1693.41 364.381 1694.41 363.38 1695.43 363.855C1695.65 363.957 1695.82 364.127 1695.92 364.347C1696.38 365.365 1695.4 366.349 1694.38 365.891C1694.16 365.789 1693.99 365.62 1693.89 365.399Z" fill="white" fill-opacity="0.2"/>
<path d="M1538.47 132.399C1538.01 131.378 1538.99 130.391 1540.02 130.85C1540.24 130.952 1540.41 131.123 1540.51 131.344C1540.97 132.365 1539.98 133.351 1538.96 132.892C1538.74 132.79 1538.57 132.62 1538.47 132.399Z" fill="white" fill-opacity="0.4"/>
<path d="M1418.8 163.071C1418.35 162.05 1419.33 161.063 1420.35 161.523C1420.57 161.625 1420.74 161.795 1420.84 162.016C1421.31 163.037 1420.31 164.024 1419.3 163.564C1419.07 163.462 1418.9 163.292 1418.8 163.071Z" fill="white" fill-opacity="0.2"/>
<path d="M1582.13 803.387C1581.67 802.366 1582.66 801.379 1583.68 801.839C1583.9 801.941 1584.07 802.111 1584.17 802.332C1584.63 803.353 1583.65 804.34 1582.62 803.88C1582.4 803.778 1582.23 803.608 1582.13 803.387Z" fill="white" fill-opacity="0.2"/>
<path d="M1551.61 212.764C1551.14 211.743 1552.14 210.757 1553.16 211.216C1553.38 211.318 1553.55 211.488 1553.65 211.709C1554.11 212.73 1553.12 213.717 1552.11 213.258C1551.89 213.156 1551.72 212.985 1551.61 212.764Z" fill="white" fill-opacity="0.2"/>
<path d="M1680.24 124.42C1679.78 123.401 1680.77 122.417 1681.78 122.875C1682.01 122.977 1682.18 123.147 1682.28 123.367C1682.75 124.386 1681.75 125.387 1680.73 124.912C1680.51 124.81 1680.34 124.64 1680.24 124.42Z" fill="white" fill-opacity="0.2"/>
<path d="M1727.43 446.15C1726.97 445.129 1727.96 444.142 1728.98 444.601C1729.2 444.703 1729.37 444.874 1729.47 445.095C1729.93 446.116 1728.94 447.102 1727.92 446.643C1727.7 446.541 1727.53 446.371 1727.43 446.15Z" fill="white" fill-opacity="0.2"/>
<path d="M1675.69 617.737C1675.24 616.717 1676.22 615.73 1677.24 616.189C1677.46 616.291 1677.63 616.461 1677.73 616.683C1678.21 617.703 1677.2 618.69 1676.19 618.231C1675.97 618.129 1675.8 617.959 1675.69 617.737Z" fill="white" fill-opacity="0.2"/>
<path d="M1696.53 813.338C1696.07 812.317 1697.06 811.33 1698.08 811.789C1698.3 811.891 1698.47 812.062 1698.57 812.283C1699.03 813.303 1698.04 814.29 1697.02 813.831C1696.8 813.729 1696.63 813.559 1696.53 813.338Z" fill="white" fill-opacity="0.2"/>
<path d="M1152.83 879.171C1152.37 878.15 1153.35 877.163 1154.38 877.623C1154.6 877.725 1154.77 877.895 1154.87 878.116C1155.33 879.137 1154.34 880.124 1153.32 879.664C1153.1 879.562 1152.93 879.392 1152.83 879.171Z" fill="white" fill-opacity="0.2"/>
<path d="M1661.72 922.768C1661.25 921.747 1662.25 920.761 1663.27 921.22C1663.49 921.322 1663.66 921.492 1663.76 921.713C1664.22 922.734 1663.23 923.721 1662.22 923.262C1661.99 923.159 1661.83 922.989 1661.72 922.768Z" fill="white" fill-opacity="0.4"/>
<path d="M1366.62 235.818C1367.1 234.797 1366.09 233.81 1365.08 234.269C1364.86 234.371 1364.69 234.541 1364.58 234.763C1364.13 235.783 1365.11 236.77 1366.13 236.311C1366.35 236.209 1366.52 236.039 1366.62 235.818Z" fill="white" fill-opacity="0.4"/>
<path d="M1641.7 465.424C1642.16 464.403 1641.17 463.416 1640.15 463.876C1639.93 463.978 1639.76 464.148 1639.66 464.369C1639.2 465.39 1640.18 466.377 1641.2 465.917C1641.42 465.815 1641.59 465.645 1641.7 465.424Z" fill="white" fill-opacity="0.2"/>
<path d="M1540.26 310.766C1539.79 309.745 1540.79 308.759 1541.81 309.218C1542.03 309.32 1542.2 309.49 1542.3 309.711C1542.76 310.732 1541.77 311.719 1540.75 311.26C1540.53 311.158 1540.36 310.987 1540.26 310.766Z" fill="white" fill-opacity="0.4"/>
<path d="M1524.86 360.811C1524.39 359.79 1525.39 358.803 1526.41 359.262C1526.63 359.365 1526.8 359.535 1526.9 359.756C1527.36 360.777 1526.37 361.763 1525.36 361.304C1525.14 361.202 1524.97 361.032 1524.86 360.811Z" fill="white" fill-opacity="0.4"/>
<path d="M1664.67 231.271C1664.19 230.25 1665.19 229.263 1666.21 229.722C1666.43 229.825 1666.6 229.995 1666.7 230.216C1667.16 231.237 1666.18 232.223 1665.16 231.764C1664.94 231.662 1664.77 231.492 1664.67 231.271Z" fill="white" fill-opacity="0.2"/>
<path d="M1376.33 338.211C1375.88 337.19 1376.86 336.203 1377.88 336.662C1378.1 336.764 1378.27 336.935 1378.38 337.156C1378.84 338.177 1377.85 339.163 1376.83 338.704C1376.61 338.602 1376.44 338.432 1376.33 338.211Z" fill="white" fill-opacity="0.2"/>
<path d="M1341.52 447.642C1341.05 446.621 1342.05 445.634 1343.06 446.094C1343.28 446.196 1343.45 446.366 1343.56 446.587C1344.01 447.608 1343.03 448.594 1342.01 448.135C1341.79 448.033 1341.62 447.863 1341.52 447.642Z" fill="white" fill-opacity="0.4"/>
<path d="M1535.16 663.231C1534.69 662.21 1535.69 661.223 1536.7 661.682C1536.93 661.784 1537.1 661.955 1537.2 662.176C1537.66 663.197 1536.67 664.183 1535.65 663.724C1535.43 663.622 1535.26 663.452 1535.16 663.231Z" fill="white" fill-opacity="0.2"/>
<path d="M1189.69 319.931C1190.15 318.91 1189.16 317.923 1188.14 318.383C1187.92 318.485 1187.75 318.655 1187.65 318.876C1187.19 319.897 1188.17 320.884 1189.2 320.424C1189.42 320.322 1189.59 320.152 1189.69 319.931Z" fill="white" fill-opacity="0.4"/>
<path d="M1144.51 619.709C1144.99 618.688 1143.99 617.702 1142.97 618.161C1142.75 618.263 1142.58 618.433 1142.48 618.654C1142.02 619.675 1143 620.662 1144.02 620.202C1144.24 620.1 1144.41 619.93 1144.51 619.709Z" fill="white" fill-opacity="0.2"/>
<path d="M1045.99 340.915C1046.44 339.894 1045.46 338.907 1044.44 339.366C1044.22 339.469 1044.05 339.639 1043.95 339.86C1043.47 340.881 1044.48 341.867 1045.49 341.408C1045.71 341.306 1045.88 341.136 1045.99 340.915Z" fill="white" fill-opacity="0.2"/>
<path d="M1216.97 408.591C1217.43 407.57 1216.44 406.583 1215.42 407.043C1215.2 407.145 1215.03 407.315 1214.93 407.536C1214.47 408.557 1215.46 409.544 1216.48 409.084C1216.7 408.982 1216.87 408.812 1216.97 408.591Z" fill="white" fill-opacity="0.2"/>
<path d="M650.183 542.717C650.658 541.697 649.657 540.71 648.639 541.169C648.418 541.271 648.249 541.441 648.147 541.663C647.689 542.683 648.673 543.67 649.691 543.211C649.912 543.109 650.081 542.939 650.183 542.717Z" fill="white" fill-opacity="0.2"/>
<path d="M1035.1 706.398C1035.57 705.377 1034.57 704.39 1033.55 704.849C1033.33 704.951 1033.16 705.122 1033.06 705.343C1032.6 706.364 1033.59 707.35 1034.61 706.891C1034.83 706.789 1035 706.619 1035.1 706.398Z" fill="white" fill-opacity="0.2"/>
<path d="M1394.29 745.044C1394.75 744.023 1393.76 743.037 1392.75 743.496C1392.53 743.598 1392.36 743.768 1392.25 743.989C1391.78 745.01 1392.78 745.997 1393.8 745.537C1394.02 745.435 1394.19 745.265 1394.29 745.044Z" fill="white" fill-opacity="0.2"/>
<path d="M544.058 324.478C544.533 323.457 543.532 322.47 542.514 322.929C542.293 323.032 542.124 323.202 542.022 323.423C541.564 324.444 542.548 325.43 543.566 324.971C543.787 324.869 543.956 324.699 544.058 324.478Z" fill="white" fill-opacity="0.4"/>
<path d="M532.658 629.157C533.116 628.137 532.132 627.15 531.114 627.609C530.893 627.711 530.724 627.881 530.622 628.103C530.147 629.123 531.148 630.11 532.166 629.651C532.386 629.549 532.556 629.379 532.658 629.157Z" fill="white" fill-opacity="0.2"/>
<path d="M946.494 361.841C946.952 360.823 945.968 359.839 944.95 360.297C944.729 360.399 944.559 360.568 944.458 360.789C943.983 361.807 944.984 362.808 946.002 362.333C946.222 362.231 946.392 362.061 946.494 361.841Z" fill="white" fill-opacity="0.2"/>
<path d="M789.806 775.708C790.264 774.687 789.28 773.7 788.262 774.159C788.042 774.262 787.872 774.432 787.77 774.653C787.295 775.674 788.296 776.66 789.314 776.201C789.535 776.099 789.705 775.929 789.806 775.708Z" fill="white" fill-opacity="0.2"/>
<path d="M1227.84 482.068C1226.82 481.593 1225.84 482.594 1226.3 483.612C1226.4 483.833 1226.57 484.003 1226.79 484.105C1227.81 484.563 1228.8 483.579 1228.34 482.56C1228.24 482.34 1228.07 482.17 1227.84 482.068Z" fill="white" fill-opacity="0.2"/>
<path d="M406.939 459.625C407.397 458.604 406.413 457.618 405.395 458.077C405.174 458.179 405.005 458.349 404.903 458.57C404.428 459.591 405.429 460.578 406.447 460.118C406.668 460.016 406.837 459.846 406.939 459.625Z" fill="white" fill-opacity="0.2"/>
<path d="M498.753 391.834C499.228 390.813 498.227 389.827 497.209 390.286C496.989 390.388 496.819 390.558 496.717 390.779C496.259 391.8 497.243 392.787 498.261 392.327C498.482 392.225 498.652 392.055 498.753 391.834Z" fill="white" fill-opacity="0.2"/>
<path d="M1139.83 766.668C1140.29 765.647 1139.3 764.66 1138.28 765.119C1138.06 765.221 1137.89 765.392 1137.79 765.613C1137.33 766.634 1138.32 767.62 1139.34 767.161C1139.56 767.059 1139.73 766.889 1139.83 766.668Z" fill="white" fill-opacity="0.2"/>
<path d="M679.075 377.146C678.6 376.125 679.601 375.139 680.619 375.598C680.84 375.7 681.009 375.87 681.111 376.091C681.569 377.112 680.585 378.099 679.567 377.639C679.346 377.537 679.177 377.367 679.075 377.146Z" fill="white" fill-opacity="0.4"/>
<path d="M1230.84 592.731C1230.38 591.71 1231.37 590.723 1232.39 591.182C1232.61 591.284 1232.78 591.455 1232.88 591.676C1233.35 592.697 1232.35 593.683 1231.33 593.224C1231.11 593.122 1230.94 592.952 1230.84 592.731Z" fill="white" fill-opacity="0.2"/>
<path d="M1177.26 528.332C1176.79 527.311 1177.79 526.324 1178.81 526.783C1179.03 526.886 1179.2 527.056 1179.3 527.277C1179.76 528.298 1178.77 529.284 1177.75 528.825C1177.53 528.723 1177.36 528.553 1177.26 528.332Z" fill="white" fill-opacity="0.4"/>
<path d="M1276.14 692.66C1275.68 691.639 1276.67 690.652 1277.68 691.112C1277.9 691.214 1278.07 691.384 1278.18 691.605C1278.65 692.626 1277.65 693.613 1276.63 693.153C1276.41 693.051 1276.24 692.881 1276.14 692.66Z" fill="white" fill-opacity="0.2"/>
<path d="M1378.66 614.213C1377.64 614.672 1376.65 613.685 1377.11 612.664C1377.21 612.443 1377.38 612.273 1377.6 612.171C1378.62 611.712 1379.61 612.698 1379.15 613.719C1379.05 613.94 1378.88 614.111 1378.66 614.213Z" fill="white" fill-opacity="0.4"/>
<path d="M1323.32 540.932C1322.3 541.407 1321.31 540.406 1321.77 539.388C1321.87 539.167 1322.04 538.998 1322.27 538.896C1323.29 538.438 1324.27 539.422 1323.81 540.44C1323.71 540.66 1323.54 540.83 1323.32 540.932Z" fill="white" fill-opacity="0.2"/>
<path d="M432.507 348.188C432.047 347.167 433.034 346.18 434.055 346.639C434.276 346.741 434.446 346.912 434.548 347.133C435.008 348.154 434.021 349.14 433 348.681C432.779 348.579 432.609 348.409 432.507 348.188Z" fill="white" fill-opacity="0.2"/>
<path d="M858.02 670.026C857.545 669.008 858.546 668.006 859.564 668.482C859.785 668.583 859.955 668.753 860.056 668.974C860.514 669.992 859.53 670.976 858.512 670.518C858.292 670.416 858.122 670.246 858.02 670.026Z" fill="white" fill-opacity="0.2"/>
<path d="M702.6 437.025C702.141 436.005 703.128 435.018 704.149 435.477C704.37 435.579 704.54 435.75 704.642 435.971C705.101 436.991 704.115 437.978 703.094 437.519C702.873 437.417 702.702 437.247 702.6 437.025Z" fill="white" fill-opacity="0.4"/>
<path d="M582.936 467.697C582.478 466.677 583.462 465.69 584.48 466.149C584.701 466.251 584.87 466.421 584.972 466.643C585.447 467.663 584.446 468.65 583.428 468.191C583.207 468.089 583.038 467.919 582.936 467.697Z" fill="white" fill-opacity="0.2"/>
<path d="M715.747 517.391C715.272 516.37 716.273 515.384 717.291 515.843C717.511 515.945 717.681 516.115 717.783 516.336C718.241 517.357 717.257 518.344 716.239 517.885C716.018 517.783 715.849 517.612 715.747 517.391Z" fill="white" fill-opacity="0.2"/>
<path d="M464.006 508.613C463.548 507.595 464.532 506.611 465.55 507.069C465.771 507.171 465.941 507.34 466.042 507.561C466.518 508.579 465.516 509.58 464.498 509.105C464.278 509.003 464.108 508.833 464.006 508.613Z" fill="white" fill-opacity="0.2"/>
<path d="M891.561 750.776C891.102 749.756 892.089 748.769 893.109 749.228C893.331 749.33 893.501 749.5 893.603 749.722C894.062 750.742 893.075 751.729 892.055 751.27C891.834 751.168 891.663 750.998 891.561 750.776Z" fill="white" fill-opacity="0.2"/>
<path d="M1466.54 479.552C1465.52 480.027 1464.53 479.026 1464.99 478.008C1465.09 477.787 1465.26 477.617 1465.48 477.515C1466.51 477.057 1467.49 478.041 1467.03 479.06C1466.93 479.28 1466.76 479.45 1466.54 479.552Z" fill="white" fill-opacity="0.2"/>
<path d="M409.45 888.264C408.975 887.243 409.976 886.257 410.994 886.716C411.215 886.818 411.384 886.988 411.486 887.209C411.944 888.23 410.96 889.217 409.942 888.758C409.721 888.656 409.552 888.485 409.45 888.264Z" fill="white" fill-opacity="0.2"/>
<path d="M188.942 876.898C188.467 875.877 189.468 874.89 190.486 875.349C190.707 875.451 190.876 875.622 190.978 875.843C191.436 876.864 190.452 877.85 189.434 877.391C189.213 877.289 189.044 877.119 188.942 876.898Z" fill="white" fill-opacity="0.4"/>
<path d="M400.356 804.151C399.881 803.13 400.882 802.143 401.9 802.603C402.121 802.705 402.29 802.875 402.392 803.096C402.85 804.117 401.866 805.104 400.848 804.644C400.628 804.542 400.458 804.372 400.356 804.151Z" fill="white" fill-opacity="0.2"/>
<path d="M134.747 622.626C134.272 621.605 135.273 620.619 136.291 621.078C136.511 621.18 136.681 621.35 136.783 621.571C137.241 622.592 136.257 623.579 135.239 623.119C135.018 623.017 134.849 622.847 134.747 622.626Z" fill="white" fill-opacity="0.2"/>
<path d="M397.801 617.893C397.326 616.872 398.327 615.885 399.345 616.344C399.566 616.447 399.736 616.617 399.838 616.838C400.296 617.859 399.312 618.845 398.293 618.386C398.073 618.284 397.903 618.114 397.801 617.893Z" fill="white" fill-opacity="0.2"/>
<path d="M244.702 755.034C244.243 754.014 245.229 753.027 246.25 753.486C246.471 753.588 246.641 753.758 246.744 753.979C247.203 755 246.216 755.987 245.195 755.528C244.974 755.426 244.804 755.255 244.702 755.034Z" fill="white" fill-opacity="0.2"/>
<path d="M1068.48 97.1442C1068.94 96.1234 1067.95 95.1366 1066.93 95.596C1066.71 95.698 1066.54 95.8682 1066.44 96.0893C1065.97 97.1101 1066.97 98.0969 1067.99 97.6375C1068.21 97.5355 1068.38 97.3653 1068.48 97.1442Z" fill="white" fill-opacity="0.2"/>
<path d="M1000.28 299.471C1000.74 298.45 999.757 297.463 998.739 297.923C998.518 298.025 998.349 298.195 998.247 298.416C997.772 299.437 998.773 300.424 999.791 299.964C1000.01 299.862 1000.18 299.692 1000.28 299.471Z" fill="white" fill-opacity="0.4"/>
<path d="M784.545 192.571C784.087 191.55 785.071 190.563 786.089 191.023C786.31 191.125 786.48 191.295 786.581 191.516C787.057 192.537 786.055 193.524 785.037 193.064C784.817 192.962 784.647 192.792 784.545 192.571Z" fill="white" fill-opacity="0.2"/>
<path d="M969.882 201.255C969.422 200.235 970.409 199.248 971.43 199.707C971.651 199.809 971.821 199.979 971.923 200.201C972.383 201.221 971.396 202.208 970.375 201.749C970.154 201.647 969.984 201.477 969.882 201.255Z" fill="white" fill-opacity="0.2"/>
<path d="M1082.36 265.371C1081.88 264.35 1082.88 263.363 1083.9 263.823C1084.12 263.925 1084.29 264.095 1084.39 264.316C1084.85 265.337 1083.87 266.323 1082.85 265.864C1082.63 265.762 1082.46 265.592 1082.36 265.371Z" fill="white" fill-opacity="0.2"/>
<path d="M861.848 254.004C861.373 252.983 862.374 251.996 863.392 252.456C863.613 252.558 863.783 252.728 863.884 252.949C864.343 253.97 863.358 254.957 862.34 254.497C862.12 254.395 861.95 254.225 861.848 254.004Z" fill="white" fill-opacity="0.4"/>
<path d="M1073.26 181.257C1072.79 180.237 1073.79 179.25 1074.81 179.709C1075.03 179.811 1075.2 179.981 1075.3 180.203C1075.76 181.223 1074.77 182.21 1073.75 181.751C1073.53 181.649 1073.36 181.479 1073.26 181.257Z" fill="white" fill-opacity="0.2"/>
<path d="M917.608 132.141C917.149 131.12 918.136 130.133 919.156 130.593C919.378 130.695 919.548 130.865 919.65 131.086C920.109 132.107 919.122 133.093 918.102 132.634C917.88 132.532 917.71 132.362 917.608 132.141Z" fill="white" fill-opacity="0.2"/>
<path d="M165.717 63.004C165.259 61.9859 166.243 61.0018 167.261 61.4599C167.482 61.5617 167.652 61.7314 167.753 61.952C168.228 62.97 167.227 63.9711 166.209 63.496C165.989 63.3942 165.819 63.2245 165.717 63.004Z" fill="white" fill-opacity="0.2"/>
<path d="M298.059 126.697C297.584 125.677 298.585 124.69 299.603 125.149C299.824 125.251 299.994 125.421 300.095 125.643C300.554 126.663 299.569 127.65 298.551 127.191C298.331 127.089 298.161 126.919 298.059 126.697Z" fill="white" fill-opacity="0.2"/>
</g>
<defs>
<radialGradient id="paint0_radial_1650_3043" cx="0" cy="0" r="1" gradientUnits="userSpaceOnUse" gradientTransform="translate(864) rotate(90) scale(1205 1728)">
<stop stop-color="#7939FF"/>
<stop offset="1" stop-color="#0C0222" stop-opacity="0"/>
</radialGradient>
<radialGradient id="paint1_radial_1650_3043" cx="0" cy="0" r="1" gradientUnits="userSpaceOnUse" gradientTransform="translate(864 1205) rotate(-90) scale(1205 1728)">
<stop stop-color="#3994FF"/>
<stop offset="1" stop-color="#0C0222" stop-opacity="0"/>
</radialGradient>
<radialGradient id="paint2_radial_1650_3043" cx="0" cy="0" r="1" gradientUnits="userSpaceOnUse" gradientTransform="translate(864 602.5) rotate(34.8895) scale(1053.33 988.409)">
<stop stop-color="#713DFF" stop-opacity="0.06"/>
<stop offset="1" stop-color="#713DFF" stop-opacity="0"/>
</radialGradient>
<clipPath id="clip0_1650_3043">
<rect width="1728" height="1205" fill="white"/>
</clipPath>
</defs>
</svg>
