<svg width="137" height="40" viewBox="0 0 137 40" fill="none" xmlns="http://www.w3.org/2000/svg">
<path d="M24.6263 9.98925L26.9988 19.4873L24.6245 29.0107H17.3696L14.9971 19.5L17.3696 9.98925H24.6263ZM25.1674 6H16.8303C15.321 6 14.0054 7.02995 13.6399 8.49691L11.1045 18.6514C10.9652 19.2081 10.9652 19.7919 11.1045 20.3486L13.638 30.5031C14.0036 31.97 15.3192 33 16.8285 33H25.1656C26.6749 33 27.9905 31.97 28.3561 30.5031L30.9023 20.287C31.0326 19.7629 31.0326 19.2135 30.9023 18.6876L28.3579 8.49691C27.9923 7.02995 26.6767 6.00181 25.1674 6.00181V6Z" fill="#CAAAF0"/>
<path d="M45.97 29.364C44.098 29.364 42.46 28.194 41.55 26.426V29H38.404V10.41H41.55V17.508C42.46 15.662 44.124 14.492 45.996 14.492C49.662 14.492 52.08 17.456 52.08 21.928C52.08 26.348 49.584 29.364 45.97 29.364ZM41.55 22.604C41.55 24.918 43.188 26.79 45.164 26.79C47.27 26.79 48.726 24.84 48.726 21.928C48.726 19.016 47.27 17.066 45.164 17.066C43.136 17.066 41.55 19.016 41.55 21.356V22.604ZM65.1968 29.364C63.4808 29.364 62.3888 28.298 62.3888 26.296V26.166C61.5568 28.012 59.9708 29.364 57.5788 29.364C54.9788 29.364 53.3928 27.804 53.3928 25.568C53.3928 22.344 56.6428 20.342 62.3888 19.77V19.64C62.3888 17.95 61.6608 16.832 60.0488 16.832C58.2548 16.832 56.6688 17.872 55.6548 19.926L53.3928 18.184C55.1348 15.714 57.6048 14.492 60.3348 14.492C64.0788 14.492 65.5608 16.546 65.5608 19.536V26.296C65.5608 26.92 65.7688 27.18 66.2888 27.18C66.6268 27.18 66.8868 27.128 67.3028 26.92L66.9128 29C66.4448 29.208 65.8208 29.364 65.1968 29.364ZM56.6948 25.1C56.6948 26.14 57.4228 26.79 58.5408 26.79C60.4388 26.79 62.3888 25.23 62.3888 22.5V21.954C59.0348 22.292 56.6948 23.176 56.6948 25.1ZM68.822 29V14.856H71.994V18.21C72.878 16.026 74.334 14.492 75.79 14.492C76.622 14.492 77.22 14.752 77.792 15.324L76.518 18.184C75.972 17.69 75.53 17.456 74.854 17.456C73.554 17.456 71.994 19.172 71.994 22.032V25.984C71.994 27.18 72.02 28.09 72.124 29H68.822ZM79.1306 29V14.856H82.3026V18.21C83.1866 16.026 84.6426 14.492 86.0986 14.492C86.9306 14.492 87.5286 14.752 88.1006 15.324L86.8266 18.184C86.2806 17.69 85.8386 17.456 85.1626 17.456C83.8626 17.456 82.3026 19.172 82.3026 22.032V25.984C82.3026 27.18 82.3286 28.09 82.4326 29H79.1306ZM94.8388 29.364C90.9908 29.364 88.0008 26.79 88.0008 22.266C88.0008 17.638 90.7828 14.492 94.7608 14.492C99.0248 14.492 100.975 17.768 100.975 22.552H91.2248C91.3548 25.36 92.8628 27.024 94.8388 27.024C96.7368 27.024 98.0628 25.568 98.5568 23.956L101.131 25.646C99.5968 28.168 97.3348 29.364 94.8388 29.364ZM91.3808 20.342H97.7768C97.5688 18.236 96.5548 16.806 94.7608 16.806C93.0448 16.806 91.7968 18.106 91.3808 20.342ZM103.099 29V10.41H106.245V25.62C106.245 26.686 106.297 27.856 106.401 29H103.099Z" fill="white"/>
</svg>
